<svg width="90" height="90" viewBox="0 0 90 90" fill="none" xmlns="http://www.w3.org/2000/svg">
<path d="M36.8429 35.197C38.1189 31.4474 36.1124 27.372 32.3621 26.0958C28.6119 24.8196 24.5373 26.8257 23.2614 30.5753C21.9845 34.3275 23.9895 38.4009 27.7404 39.6773C31.4913 40.9538 35.566 38.9493 36.8429 35.197Z" fill="white"/>
<path d="M65.783 38.9488C62.0334 37.6729 57.9582 39.6787 56.6823 43.4283C55.4054 47.1805 57.4122 51.2531 61.1617 52.529C64.912 53.8052 68.9863 51.8021 70.2632 48.0498C71.5391 44.3002 69.534 40.2252 65.783 38.9488Z" fill="white"/>
<path d="M54.7328 51.1988C54.4587 50.4563 54.0197 49.5553 53.4928 48.5878C52.3482 45.2375 49.7299 42.4309 46.1195 41.2023C42.9063 40.1089 39.5548 40.4865 36.7755 41.9598C35.2724 42.5742 33.9061 43.2083 32.9742 43.7952L32.3525 44.182C29.4535 45.983 25.8454 48.2232 24.0694 53.5038C22.4207 58.4078 25.0525 63.7524 29.9363 65.4144C31.2907 65.8785 32.7339 66.0235 34.1535 65.838C35.5731 65.6525 36.9306 65.1416 38.1202 64.345C38.577 65.7022 39.3413 66.9355 40.3534 67.9486C41.3656 68.9616 42.5983 69.727 43.9551 70.1849C48.8369 71.8462 54.1815 69.2166 55.8672 64.3244C57.6807 59.0566 56.1874 55.0804 54.9893 51.8852L54.7328 51.1988Z" fill="white"/>
<path d="M48.064 37.0311C52.1965 38.4374 56.6865 36.2274 58.0927 32.0949C59.499 27.9625 57.2889 23.4725 53.1565 22.0663C49.0241 20.66 44.5341 22.87 43.1278 27.0025C41.7216 31.1349 43.9316 35.6249 48.064 37.0311Z" fill="white"/>
</svg>
