<svg width="49" height="49" viewBox="0 0 49 49" fill="none" xmlns="http://www.w3.org/2000/svg">
<circle cx="24.5" cy="24.5" r="23.5" stroke="white" stroke-width="2"/>
<path d="M38.3124 19.219C38.522 18.5157 38.3124 18 37.3213 18H34.0381C33.2027 18 32.821 18.4461 32.6114 18.9361C32.6114 18.9361 30.9421 23.0482 28.5766 25.7145C27.8131 26.4903 27.4643 26.7353 27.0481 26.7353C26.84 26.7353 26.5375 26.4903 26.5375 25.7871V19.219C26.5375 18.3751 26.2965 18 25.6003 18H20.4413C19.9203 18 19.6059 18.3902 19.6059 18.7622C19.6059 19.5607 20.7886 19.7453 20.9099 21.9956V26.8775C20.9099 27.9467 20.7197 28.1418 20.3005 28.1418C19.1882 28.1418 16.4814 24.0146 14.875 19.29C14.5621 18.372 14.2462 18.0015 13.4078 18.0015H10.1261C9.18738 18.0015 9.00024 18.4477 9.00024 18.9377C9.00024 19.8178 10.1126 24.1734 14.1818 29.934C16.8946 33.8676 20.7137 36 24.193 36C26.2785 36 26.536 35.5266 26.536 34.71V31.7367C26.536 30.79 26.7352 30.5994 27.3954 30.5994C27.8805 30.5994 28.7158 30.8474 30.6636 32.7424C32.8883 34.9897 33.2566 35.9985 34.5067 35.9985H37.7884C38.7256 35.9985 39.1942 35.5251 38.9247 34.5905C38.6298 33.6604 37.5668 32.3068 36.1565 30.7053C35.39 29.7918 34.2447 28.8088 33.8959 28.3173C33.4093 27.6836 33.5501 27.4038 33.8959 26.8412C33.8974 26.8427 37.8962 21.1533 38.3124 19.219Z" fill="white"/>
</svg>
