<svg width="118" height="115" viewBox="0 0 118 115" fill="none" xmlns="http://www.w3.org/2000/svg">
<path d="M45.0465 28.0604L67.7185 35.8854V67.8066C67.7185 68.4267 67.4636 69.0214 67.0099 69.4599C66.5562 69.8983 65.9409 70.1447 65.2992 70.1447H55.622C54.9803 70.1447 54.365 69.8983 53.9113 69.4599C53.4575 69.0214 53.2027 68.4267 53.2027 67.8066V51.4405H29.0095V67.8066C29.0095 68.4267 28.7546 69.0214 28.3009 69.4599C27.8472 69.8983 27.2319 70.1447 26.5902 70.1447H16.913C16.2713 70.1447 15.656 69.8983 15.2023 69.4599C14.7485 69.0214 14.4937 68.4267 14.4937 67.8066V36.5488C8.8748 34.6127 4.81641 29.4719 4.81641 23.3843C4.81641 22.1442 5.32619 20.9548 6.23361 20.0779C7.14102 19.201 8.37175 18.7083 9.65503 18.7083C10.9383 18.7083 12.169 19.201 13.0765 20.0779C13.9839 20.9548 14.4937 22.1442 14.4937 23.3843C14.4961 24.6238 15.0066 25.8118 15.9135 26.6882C16.8204 27.5647 18.0497 28.0581 19.3323 28.0604H45.0465ZM82.2344 11.6943V16.3703C82.2344 18.8506 81.2148 21.2293 79.4 22.9832C77.5852 24.737 75.1237 25.7224 72.5572 25.7224H67.7185V30.9215L48.364 24.2421V2.34219C48.364 0.259897 50.9678 -0.783443 52.4935 0.689507L56.6184 4.68021H64.7276C66.3773 4.68021 68.3188 5.83753 69.0552 7.26518L70.1378 9.35624H79.8151C80.4567 9.35624 81.0721 9.60257 81.5258 10.041C81.9795 10.4795 82.2344 11.0742 82.2344 11.6943ZM65.2992 11.6943C65.2992 11.2318 65.1573 10.7798 64.8915 10.3953C64.6256 10.0108 64.2478 9.71117 63.8057 9.53421C63.3637 9.35725 62.8772 9.31095 62.4079 9.40116C61.9386 9.49138 61.5075 9.71405 61.1692 10.041C60.8308 10.368 60.6004 10.7846 60.5071 11.2381C60.4137 11.6917 60.4616 12.1618 60.6447 12.589C60.8279 13.0162 61.1379 13.3813 61.5358 13.6382C61.9337 13.8952 62.4014 14.0323 62.8799 14.0323C63.5215 14.0323 64.1369 13.7859 64.5906 13.3475C65.0443 12.909 65.2992 12.3143 65.2992 11.6943Z" fill="#242424"/>
<path d="M24.3154 41.927C19.3889 41.927 14.8386 44.3676 12.0987 48.4341L1.84381 63.6223C0.636938 65.4132 -0.00487338 67.5194 6.33429e-05 69.6728V93.8782C-0.00673576 95.5001 0.533995 97.0777 1.53626 98.3601C2.53852 99.6424 3.94475 100.556 5.53131 100.955L15.0967 103.356C15.7846 106.639 17.5915 109.589 20.214 111.709C22.8366 113.829 26.1153 114.991 29.5 115C36.3293 115 42.0302 110.32 43.6748 104.039H78.0128C79.6574 110.32 85.3583 115 92.1875 115C99.0168 115 104.718 110.32 106.362 104.039H110.625C114.659 104.039 118 100.729 118 96.7317V83.374C117.996 80.1173 116.895 76.9552 114.87 74.39C112.845 71.8249 110.012 70.0038 106.823 69.2161L86.8849 64.1923L72.4815 47.1809C71.1037 45.5382 69.3779 44.2159 67.4266 43.3079C65.4752 42.4 63.3462 41.9285 61.1904 41.927H24.3154ZM24.3154 49.2343H40.5625V63.8489H10.6016L18.2089 52.5445V52.4312C18.877 51.437 19.7852 50.6238 20.8509 50.0655C21.9167 49.5072 23.1063 49.2215 24.3117 49.2343H24.3154ZM47.9375 49.2343H61.1904C63.3771 49.2343 65.4384 50.1915 66.836 51.8613L76.9766 63.8489H47.9375V49.2343ZM7.37506 71.1562H84.3516L105.094 76.2932C106.685 76.6845 108.097 77.5964 109.101 78.8813C110.105 80.1663 110.642 81.7492 110.625 83.374V96.7317H106.362C104.718 90.4511 99.0168 85.7707 92.1875 85.7707C85.3583 85.7707 79.6574 90.4511 78.0128 96.7317H43.6748C42.0302 90.4511 36.3293 85.7707 29.5 85.7707C22.9621 85.7707 17.4714 90.0528 15.5576 95.9315L7.37506 93.8818V71.1562ZM29.5 93.078C33.619 93.078 36.875 96.3042 36.875 100.385C36.875 104.466 33.619 107.693 29.5 107.693C25.3811 107.693 22.125 104.466 22.125 100.385C22.125 96.3042 25.3811 93.078 29.5 93.078ZM92.1875 93.078C96.3064 93.078 99.5625 96.3042 99.5625 100.385C99.5625 104.466 96.3064 107.693 92.1875 107.693C88.0686 107.693 84.8125 104.466 84.8125 100.385C84.8125 96.3042 88.0686 93.078 92.1875 93.078Z" fill="#FFC41E"/>
</svg>
