<svg width="40" height="40" viewBox="0 0 40 40" fill="none" xmlns="http://www.w3.org/2000/svg">
<circle cx="20" cy="20" r="19" stroke="white" stroke-width="2"/>
<path d="M19.9969 16.3249C17.9734 16.3249 16.322 17.9763 16.322 19.9999C16.322 22.0235 17.9734 23.6749 19.9969 23.6749C22.0205 23.6749 23.6719 22.0235 23.6719 19.9999C23.6719 17.9763 22.0205 16.3249 19.9969 16.3249ZM31.0191 19.9999C31.0191 18.4781 31.0329 16.97 30.9474 15.4509C30.8619 13.6865 30.4594 12.1205 29.1692 10.8302C27.8762 9.53722 26.313 9.13746 24.5486 9.05199C23.0268 8.96653 21.5188 8.98031 19.9997 8.98031C18.4779 8.98031 16.9698 8.96653 15.4508 9.05199C13.6864 9.13746 12.1204 9.53998 10.8302 10.8302C9.53721 12.1233 9.13746 13.6865 9.05199 15.4509C8.96653 16.9728 8.98031 18.4808 8.98031 19.9999C8.98031 21.519 8.96653 23.0298 9.05199 24.5489C9.13746 26.3134 9.53997 27.8793 10.8302 29.1696C12.1232 30.4626 13.6864 30.8623 15.4508 30.9478C16.9726 31.0333 18.4806 31.0195 19.9997 31.0195C21.5215 31.0195 23.0295 31.0333 24.5486 30.9478C26.313 30.8623 27.879 30.4598 29.1692 29.1696C30.4622 27.8765 30.8619 26.3134 30.9474 24.5489C31.0356 23.0298 31.0191 21.5217 31.0191 19.9999ZM19.9969 25.6544C16.8678 25.6544 14.3425 23.1291 14.3425 19.9999C14.3425 16.8707 16.8678 14.3454 19.9969 14.3454C23.126 14.3454 25.6514 16.8707 25.6514 19.9999C25.6514 23.1291 23.126 25.6544 19.9969 25.6544ZM25.8829 15.4344C25.1524 15.4344 24.5624 14.8444 24.5624 14.1138C24.5624 13.3832 25.1524 12.7932 25.8829 12.7932C26.6135 12.7932 27.2035 13.3832 27.2035 14.1138C27.2037 14.2873 27.1697 14.4591 27.1034 14.6194C27.0371 14.7797 26.9399 14.9254 26.8172 15.0481C26.6945 15.1707 26.5489 15.268 26.3886 15.3343C26.2282 15.4006 26.0564 15.4346 25.8829 15.4344Z" fill="white"/>
</svg>
