<svg width="32" height="32" viewBox="0 0 32 32" fill="none" xmlns="http://www.w3.org/2000/svg">
<circle cx="16" cy="16" r="15.5" stroke="white"/>
<path d="M15.9976 13.0599C14.3787 13.0599 13.0576 14.381 13.0576 15.9999C13.0576 17.6188 14.3787 18.9399 15.9976 18.9399C17.6164 18.9399 18.9375 17.6188 18.9375 15.9999C18.9375 14.381 17.6164 13.0599 15.9976 13.0599ZM24.8153 15.9999C24.8153 14.7824 24.8263 13.576 24.7579 12.3607C24.6895 10.9492 24.3675 9.6964 23.3354 8.66419C22.301 7.62978 21.0504 7.30997 19.6389 7.24159C18.4214 7.17322 17.215 7.18425 15.9998 7.18425C14.7823 7.18425 13.5759 7.17322 12.3606 7.24159C10.9491 7.30997 9.69635 7.63198 8.66416 8.66419C7.62977 9.6986 7.30996 10.9492 7.24159 12.3607C7.17322 13.5782 7.18425 14.7846 7.18425 15.9999C7.18425 17.2152 7.17322 18.4238 7.24159 19.6391C7.30996 21.0507 7.63197 22.3034 8.66416 23.3357C9.69855 24.3701 10.9491 24.6899 12.3606 24.7582C13.5781 24.8266 14.7845 24.8156 15.9998 24.8156C17.2172 24.8156 18.4236 24.8266 19.6389 24.7582C21.0504 24.6899 22.3032 24.3679 23.3354 23.3357C24.3697 22.3012 24.6895 21.0507 24.7579 19.6391C24.8285 18.4238 24.8153 17.2174 24.8153 15.9999ZM15.9976 20.5235C13.4943 20.5235 11.474 18.5032 11.474 15.9999C11.474 13.4966 13.4943 11.4763 15.9976 11.4763C18.5008 11.4763 20.5211 13.4966 20.5211 15.9999C20.5211 18.5032 18.5008 20.5235 15.9976 20.5235ZM20.7064 12.3475C20.1219 12.3475 19.6499 11.8755 19.6499 11.291C19.6499 10.7065 20.1219 10.2346 20.7064 10.2346C21.2908 10.2346 21.7628 10.7065 21.7628 11.291C21.763 11.4298 21.7358 11.5673 21.6827 11.6955C21.6297 11.8238 21.5519 11.9403 21.4538 12.0384C21.3556 12.1366 21.2391 12.2144 21.1109 12.2674C20.9826 12.3205 20.8451 12.3477 20.7064 12.3475Z" fill="white"/>
</svg>
