<svg width="40" height="40" viewBox="0 0 40 40" fill="none" xmlns="http://www.w3.org/2000/svg">
<circle cx="20" cy="20" r="19" stroke="white" stroke-width="2"/>
<path d="M31.2755 15.6889C31.4466 15.1148 31.2755 14.6938 30.4664 14.6938H27.7862C27.1043 14.6938 26.7926 15.058 26.6215 15.458C26.6215 15.458 25.2589 18.8148 23.3279 20.9914C22.7046 21.6247 22.4198 21.8247 22.0801 21.8247C21.9102 21.8247 21.6633 21.6247 21.6633 21.0507V15.6889C21.6633 15 21.4666 14.6938 20.8983 14.6938H16.6868C16.2615 14.6938 16.0048 15.0124 16.0048 15.3161C16.0048 15.9679 16.9703 16.1185 17.0693 17.9556V21.9408C17.0693 22.8136 16.9141 22.9729 16.5719 22.9729C15.6638 22.9729 13.4542 19.6037 12.1428 15.7469C11.8874 14.9976 11.6295 14.6951 10.9451 14.6951H8.26622C7.49994 14.6951 7.34717 15.0593 7.34717 15.4593C7.34717 16.1778 8.25522 19.7334 11.577 24.4359C13.7915 27.647 16.9092 29.3877 19.7494 29.3877C21.4519 29.3877 21.6621 29.0013 21.6621 28.3346V25.9075C21.6621 25.1346 21.8246 24.9791 22.3636 24.9791C22.7596 24.9791 23.4415 25.1815 25.0315 26.7285C26.8476 28.563 27.1483 29.3865 28.1688 29.3865H30.8477C31.6128 29.3865 31.9953 29.0001 31.7753 28.2371C31.5346 27.4778 30.6668 26.3729 29.5156 25.0655C28.8898 24.3198 27.9549 23.5173 27.6701 23.1161C27.2729 22.5988 27.3878 22.3704 27.6701 21.9112C27.6714 21.9124 30.9357 17.2679 31.2755 15.6889Z" fill="white"/>
</svg>
