<svg width="32" height="32" viewBox="0 0 32 32" fill="none" xmlns="http://www.w3.org/2000/svg">
<circle cx="16" cy="16" r="15.5" stroke="white"/>
<path d="M25.0201 12.5509C25.157 12.0917 25.0201 11.7549 24.3728 11.7549H22.2287C21.6831 11.7549 21.4338 12.0462 21.2969 12.3662C21.2969 12.3662 20.2068 15.0517 18.662 16.7929C18.1634 17.2996 17.9356 17.4596 17.6638 17.4596C17.5279 17.4596 17.3304 17.2996 17.3304 16.8403V12.5509C17.3304 11.9998 17.173 11.7549 16.7183 11.7549H13.3491C13.0089 11.7549 12.8036 12.0097 12.8036 12.2527C12.8036 12.7741 13.5759 12.8946 13.6551 14.3643V17.5524C13.6551 18.2507 13.531 18.3781 13.2572 18.3781C12.5308 18.3781 10.7631 15.6828 9.71398 12.5974C9.50964 11.9978 9.30335 11.7559 8.75583 11.7559H6.61268C5.99966 11.7559 5.87744 12.0472 5.87744 12.3672C5.87744 12.942 6.60388 15.7865 9.2613 19.5485C11.0329 22.1174 13.5271 23.51 15.7993 23.51C17.1612 23.51 17.3294 23.2008 17.3294 22.6675V20.7258C17.3294 20.1075 17.4594 19.9831 17.8906 19.9831C18.2074 19.9831 18.7529 20.145 20.0249 21.3826C21.4778 22.8502 21.7183 23.509 22.5347 23.509H24.6779C25.2899 23.509 25.5959 23.1999 25.42 22.5895C25.2274 21.9821 24.5332 21.0981 23.6122 20.0522C23.1116 19.4556 22.3636 18.8137 22.1358 18.4927C21.8181 18.0789 21.91 17.8961 22.1358 17.5287C22.1368 17.5297 24.7483 13.8141 25.0201 12.5509Z" fill="white"/>
</svg>
